<?xml version="1.0" encoding="UTF-8" standalone="no"?>
<!-- Created with Inkscape (http://www.inkscape.org/) -->
<svg
   xmlns:dc="http://purl.org/dc/elements/1.1/"
   xmlns:cc="http://creativecommons.org/ns#"
   xmlns:rdf="http://www.w3.org/1999/02/22-rdf-syntax-ns#"
   xmlns:svg="http://www.w3.org/2000/svg"
   xmlns="http://www.w3.org/2000/svg"
   xmlns:sodipodi="http://sodipodi.sourceforge.net/DTD/sodipodi-0.dtd"
   xmlns:inkscape="http://www.inkscape.org/namespaces/inkscape"
   version="1.0"
   width="486.25"
   height="297.5"
   id="svg2"
   xml:space="preserve"
   sodipodi:version="0.32"
   inkscape:version="0.46"
   sodipodi:docname="Homography-transl.svg"
   inkscape:output_extension="org.inkscape.output.svg.inkscape"><metadata
     id="metadata122"><rdf:RDF><cc:Work
         rdf:about=""><dc:format>image/svg+xml</dc:format><dc:type
           rdf:resource="http://purl.org/dc/dcmitype/StillImage" /></cc:Work></rdf:RDF></metadata><sodipodi:namedview
     inkscape:window-height="1125"
     inkscape:window-width="1919"
     inkscape:pageshadow="2"
     inkscape:pageopacity="0.0"
     guidetolerance="10.0"
     gridtolerance="10.0"
     objecttolerance="10.0"
     borderopacity="1.0"
     bordercolor="#666666"
     pagecolor="#ffffff"
     id="base"
     showgrid="false"
     showguides="true"
     inkscape:guide-bbox="true"
     inkscape:zoom="1.1125964"
     inkscape:cx="468.5397"
     inkscape:cy="-6.7808755"
     inkscape:window-x="0"
     inkscape:window-y="25"
     inkscape:current-layer="svg2" /><defs
     id="defs5"><inkscape:perspective
       sodipodi:type="inkscape:persp3d"
       inkscape:vp_x="0 : 148.75 : 1"
       inkscape:vp_y="0 : 1000 : 0"
       inkscape:vp_z="486.25 : 148.75 : 1"
       inkscape:persp3d-origin="243.125 : 99.166667 : 1"
       id="perspective124" /></defs><g
     id="g3618"><g
       id="g3500"><path
         d="M 66.65425,150.87625 C 66.640625,150.62625 66.61325,150.3775 66.57325,150.13125 C 66.536125,149.90375 66.48775,149.67875 66.4145,149.46 C 66.357875,149.28875 66.285625,149.12375 66.204125,148.96375 C 66.149875,148.85875 66.0845,148.75125 65.97125,148.71875 C 65.8965,148.6975 65.816875,148.71625 65.753875,148.7625 C 65.652875,148.8375 65.61425,148.96375 65.585,149.08625 C 65.541,149.26875 65.506875,149.45375 65.48875,149.64 C 65.465875,149.87375 65.46675,150.10875 65.48,150.34125 C 65.493625,150.59 65.5205,150.8375 65.5605,151.0825 C 65.597125,151.31 65.645,151.535 65.71775,151.7525 C 65.774875,151.9225 65.846625,152.0875 65.92825,152.24875 C 65.981875,152.35375 66.046875,152.4625 66.159625,152.49625 C 66.233875,152.51875 66.314,152.50125 66.3775,152.45625 C 66.4795,152.3825 66.518125,152.25625 66.547875,152.13375 C 66.59225,151.95125 66.6265,151.76625 66.645,151.58 C 66.6685,151.34625 66.667,151.11125 66.65425,150.87625 z"
         id="path15"
         style="fill:none;stroke:#000000;stroke-width:1;stroke-linecap:butt;stroke-linejoin:round;stroke-miterlimit:10;stroke-dasharray:none;stroke-opacity:1" /><path
         d="M 70.98925,150.83125 C 70.962375,150.3325 70.90875,149.835 70.828125,149.3425 C 70.753875,148.8875 70.65675,148.43625 70.50925,148 C 70.394,147.66 70.249,147.33 70.082,147.01125 C 69.972625,146.8025 69.838875,146.58875 69.61275,146.52625 C 69.461,146.48375 69.29975,146.5225 69.172875,146.61625 C 68.96975,146.76625 68.890125,147.02 68.828625,147.265 C 68.73775,147.63 68.669875,147.99875 68.632375,148.3725 C 68.586375,148.83625 68.587875,149.30375 68.61325,149.76875 C 68.640125,150.2625 68.693375,150.755 68.773,151.24375 C 68.846625,151.695 68.942875,152.1425 69.088375,152.57625 C 69.202625,152.9175 69.34625,153.24625 69.51125,153.565 C 69.620125,153.77625 69.7525,153.99125 69.979,154.06 C 70.129375,154.10625 70.2915,154.075 70.420375,153.98375 C 70.626,153.83875 70.7065,153.5875 70.768125,153.34375 C 70.860375,152.98 70.930125,152.61125 70.96825,152.2375 C 71.016125,151.77 71.014625,151.3 70.98925,150.83125 z"
         id="path17"
         style="fill:none;stroke:#000000;stroke-width:1;stroke-linecap:butt;stroke-linejoin:round;stroke-miterlimit:10;stroke-dasharray:none;stroke-opacity:1" /><path
         d="M 75.32175,150.7875 C 75.28275,150.03875 75.202125,149.29375 75.080625,148.55375 C 74.96825,147.8725 74.82075,147.19625 74.598125,146.5425 C 74.424375,146.0325 74.206,145.53875 73.951125,145.06375 C 73.78375,144.75125 73.579125,144.435 73.23825,144.3425 C 73.007375,144.27875 72.76275,144.34 72.57025,144.48375 C 72.265625,144.71125 72.142625,145.09 72.047875,145.4575 C 71.90825,146.0025 71.805125,146.55625 71.7485,147.115 C 71.67825,147.8075 71.67925,148.505 71.715875,149.20125 C 71.755375,149.93875 71.835,150.67375 71.954625,151.4025 C 72.065,152.07625 72.21,152.745 72.42825,153.3925 C 72.599625,153.9025 72.815375,154.39625 73.065875,154.8725 C 73.232375,155.18875 73.433625,155.50875 73.773875,155.615 C 74.0015,155.68625 74.248,155.64 74.444875,155.505 C 74.754875,155.29125 74.879875,154.915 74.975625,154.55125 C 75.118625,154.00625 75.225125,153.45375 75.284125,152.895 C 75.358375,152.195 75.358375,151.49 75.32175,150.7875 z"
         id="path19"
         style="fill:none;stroke:#000000;stroke-width:1;stroke-linecap:butt;stroke-linejoin:round;stroke-miterlimit:10;stroke-dasharray:none;stroke-opacity:1" /><path
         d="M 79.650375,150.7425 C 79.599625,149.745 79.492625,148.75125 79.329625,147.76625 C 79.17925,146.85875 78.981,145.9575 78.682125,145.0875 C 78.44875,144.40875 78.15525,143.75125 77.81,143.12125 C 77.582,142.7075 77.30425,142.28875 76.849125,142.1675 C 76.536625,142.085 76.207,142.16875 75.94775,142.3625 C 75.5405,142.66875 75.372125,143.17375 75.242625,143.665 C 75.05225,144.38875 74.913625,145.125 74.836875,145.86875 C 74.74175,146.78875 74.74125,147.715 74.789,148.63875 C 74.839875,149.6175 74.94525,150.59375 75.105,151.56 C 75.2525,152.455 75.44625,153.3425 75.736875,154.20125 C 75.96625,154.88 76.254875,155.53625 76.59225,156.1675 C 76.817875,156.59 77.090375,157.01625 77.544875,157.16 C 77.851125,157.2575 78.184125,157.19875 78.450625,157.01875 C 78.86675,156.73875 79.04,156.23875 79.171875,155.75375 C 79.368125,155.03125 79.51275,154.295 79.59425,153.55 C 79.69575,152.61875 79.69775,151.67875 79.650375,150.7425 z"
         id="path21"
         style="fill:none;stroke:#000000;stroke-width:1;stroke-linecap:butt;stroke-linejoin:round;stroke-miterlimit:10;stroke-dasharray:none;stroke-opacity:1" /><path
         d="M 83.975625,150.6975 C 83.914,149.45125 83.78125,148.21 83.576125,146.97875 C 83.38725,145.845 83.13675,144.72 82.76075,143.63375 C 82.46725,142.78625 82.098625,141.96625 81.659125,141.18375 C 81.369625,140.6675 81.015125,140.15 80.444875,140.0025 C 80.049375,139.9 79.63275,140.0075 79.305625,140.255 C 78.795875,140.63875 78.579625,141.27 78.413125,141.88625 C 78.169875,142.7875 77.995125,143.705 77.8975,144.63375 C 77.776875,145.77875 77.7735,146.9325 77.832,148.08125 C 77.894,149.29875 78.024375,150.51375 78.224125,151.71625 C 78.40875,152.83 78.651875,153.93375 79.015625,155.0025 C 79.30325,155.84875 79.6645,156.6675 80.090375,157.4525 C 80.3765,157.98 80.721625,158.51125 81.291,158.695 C 81.67825,158.82 82.099625,158.75125 82.4385,158.52625 C 82.961375,158.17875 83.185,157.55875 83.3555,156.95375 C 83.608875,156.05375 83.793,155.135 83.897,154.205 C 84.027875,153.04125 84.03325,151.8675 83.975625,150.6975 z"
         id="path23"
         style="fill:none;stroke:#000000;stroke-width:1;stroke-linecap:butt;stroke-linejoin:round;stroke-miterlimit:10;stroke-dasharray:none;stroke-opacity:1" /><path
         d="M 88.297875,150.6525 C 88.226125,149.1575 88.066875,147.6675 87.819875,146.1925 C 87.59175,144.8325 87.288625,143.48375 86.834,142.18125 C 86.4795,141.16625 86.034125,140.18375 85.4985,139.25125 C 85.145,138.635 84.711875,138.0175 84.025875,137.845 C 83.544375,137.72375 83.04,137.85875 82.6435,138.16 C 82.03075,138.62375 81.764125,139.38 81.559125,140.12 C 81.26125,141.19875 81.05025,142.29875 80.931125,143.41 C 80.784625,144.77875 80.777875,146.15625 80.84625,147.53125 C 80.9185,148.985 81.07425,150.435 81.3135,151.87125 C 81.534625,153.20125 81.827625,154.52 82.263625,155.7975 C 82.609875,156.81 83.044375,157.79125 83.561,158.73 C 83.909125,159.36125 84.329625,159.99625 85.014125,160.22125 C 85.482875,160.37375 85.994625,160.29625 86.40825,160.02625 C 87.039,159.615 87.315875,158.87375 87.526875,158.15 C 87.839875,157.07375 88.0645,155.9725 88.193375,154.85875 C 88.3545,153.46375 88.36475,152.05625 88.297875,150.6525 z"
         id="path25"
         style="fill:none;stroke:#000000;stroke-width:1;stroke-linecap:butt;stroke-linejoin:round;stroke-miterlimit:10;stroke-dasharray:none;stroke-opacity:1" /><path
         d="M 88.193375,154.85875 L 62.315375,150.92125"
         id="path27"
         style="fill:none;stroke:#000000;stroke-width:1;stroke-linecap:round;stroke-linejoin:round;stroke-miterlimit:10;stroke-dasharray:none;stroke-opacity:1" /><path
         d="M 87.526875,158.15 L 62.315375,150.92125"
         id="path29"
         style="fill:none;stroke:#000000;stroke-width:1;stroke-linecap:round;stroke-linejoin:round;stroke-miterlimit:10;stroke-dasharray:none;stroke-opacity:1" /><path
         d="M 86.40825,160.02625 L 62.315375,150.92125"
         id="path31"
         style="fill:none;stroke:#000000;stroke-width:1;stroke-linecap:round;stroke-linejoin:round;stroke-miterlimit:10;stroke-dasharray:none;stroke-opacity:1" /><path
         d="M 85.014125,160.22125 L 62.315375,150.92125"
         id="path33"
         style="fill:none;stroke:#000000;stroke-width:1;stroke-linecap:round;stroke-linejoin:round;stroke-miterlimit:10;stroke-dasharray:none;stroke-opacity:1" /><path
         d="M 83.561,158.73 L 62.315375,150.92125"
         id="path35"
         style="fill:none;stroke:#000000;stroke-width:1;stroke-linecap:round;stroke-linejoin:round;stroke-miterlimit:10;stroke-dasharray:none;stroke-opacity:1" /><path
         d="M 82.263625,155.7975 L 62.315375,150.92125"
         id="path37"
         style="fill:none;stroke:#000000;stroke-width:1;stroke-linecap:round;stroke-linejoin:round;stroke-miterlimit:10;stroke-dasharray:none;stroke-opacity:1" /><path
         d="M 81.3135,151.87125 L 62.315375,150.92125"
         id="path39"
         style="fill:none;stroke:#000000;stroke-width:1;stroke-linecap:round;stroke-linejoin:round;stroke-miterlimit:10;stroke-dasharray:none;stroke-opacity:1" /><path
         d="M 80.84625,147.53125 L 62.315375,150.92125"
         id="path41"
         style="fill:none;stroke:#000000;stroke-width:1;stroke-linecap:round;stroke-linejoin:round;stroke-miterlimit:10;stroke-dasharray:none;stroke-opacity:1" /><path
         d="M 80.931125,143.41 L 62.315375,150.92125"
         id="path43"
         style="fill:none;stroke:#000000;stroke-width:1;stroke-linecap:round;stroke-linejoin:round;stroke-miterlimit:10;stroke-dasharray:none;stroke-opacity:1" /><path
         d="M 81.559125,140.12 L 62.315375,150.92125"
         id="path45"
         style="fill:none;stroke:#000000;stroke-width:1;stroke-linecap:round;stroke-linejoin:round;stroke-miterlimit:10;stroke-dasharray:none;stroke-opacity:1" /><path
         d="M 82.6435,138.16 L 62.315375,150.92125"
         id="path47"
         style="fill:none;stroke:#000000;stroke-width:1;stroke-linecap:round;stroke-linejoin:round;stroke-miterlimit:10;stroke-dasharray:none;stroke-opacity:1" /><path
         d="M 84.025875,137.845 L 62.315375,150.92125"
         id="path49"
         style="fill:none;stroke:#000000;stroke-width:1;stroke-linecap:round;stroke-linejoin:round;stroke-miterlimit:10;stroke-dasharray:none;stroke-opacity:1" /><path
         d="M 85.4985,139.25125 L 62.315375,150.92125"
         id="path51"
         style="fill:none;stroke:#000000;stroke-width:1;stroke-linecap:round;stroke-linejoin:round;stroke-miterlimit:10;stroke-dasharray:none;stroke-opacity:1" /><path
         d="M 86.834,142.18125 L 62.315375,150.92125"
         id="path53"
         style="fill:none;stroke:#000000;stroke-width:1;stroke-linecap:round;stroke-linejoin:round;stroke-miterlimit:10;stroke-dasharray:none;stroke-opacity:1" /><path
         d="M 87.819875,146.1925 L 62.315375,150.92125"
         id="path55"
         style="fill:none;stroke:#000000;stroke-width:1;stroke-linecap:round;stroke-linejoin:round;stroke-miterlimit:10;stroke-dasharray:none;stroke-opacity:1" /><path
         d="M 88.297875,150.6525 L 62.315375,150.92125"
         id="path57"
         style="fill:none;stroke:#000000;stroke-width:1;stroke-linecap:round;stroke-linejoin:round;stroke-miterlimit:10;stroke-dasharray:none;stroke-opacity:1" /><path
         d="M 229.9375,175.2315 L 302.99125,23.2575 L 358.17625,64.525 L 290.34375,207.89263"
         id="path59"
         style="fill:#ffffff;fill-opacity:1;fill-rule:nonzero;stroke:none" /><path
         d="M 229.9375,175.2315 L 302.99125,23.2575 L 358.17625,64.525 L 290.34375,207.89263 L 229.9375,175.2315 z"
         id="path61"
         style="fill:none;stroke:#000000;stroke-width:0.25;stroke-linecap:round;stroke-linejoin:round;stroke-miterlimit:10;stroke-dasharray:none;stroke-opacity:1" /><path
         d="M 358.17625,64.525 L 486.71375,71.82625 L 405.0425,249.43062 L 290.34375,207.89263"
         id="path63"
         style="fill:#ffffff;fill-opacity:1;fill-rule:nonzero;stroke:none" /><path
         d="M 358.17625,64.525 L 486.71375,71.82625 L 405.0425,249.43062 L 290.34375,207.89263 L 358.17625,64.525 z"
         id="path65"
         style="fill:none;stroke:#000000;stroke-width:0.25;stroke-linecap:round;stroke-linejoin:round;stroke-miterlimit:10;stroke-dasharray:none;stroke-opacity:1" /><path
         d="M 427.8225,20.725 L 486.71375,71.82625 L 358.17625,64.525 L 302.99125,23.2575"
         id="path67"
         style="fill:#ffffff;fill-opacity:1;fill-rule:nonzero;stroke:none" /><path
         d="M 427.8225,20.725 L 486.71375,71.82625 L 358.17625,64.525 L 302.99125,23.2575 L 427.8225,20.725 z"
         id="path69"
         style="fill:none;stroke:#000000;stroke-width:0.25;stroke-linecap:round;stroke-linejoin:round;stroke-miterlimit:10;stroke-dasharray:none;stroke-opacity:1" /><path
         d="M 229.9375,175.2315 L 338.395,211.73638 L 427.8225,20.725 L 302.99125,23.2575"
         id="path71"
         style="fill:#ffffff;fill-opacity:1;fill-rule:nonzero;stroke:none;stroke-opacity:1" /><path
         d="M 229.9375,175.2315 L 338.395,211.73638 L 427.8225,20.725 L 302.99125,23.2575 L 229.9375,175.2315 z"
         id="path73"
         style="fill:none;stroke:#000000;stroke-width:1.5;stroke-linecap:round;stroke-linejoin:round;stroke-miterlimit:10;stroke-dasharray:none;stroke-opacity:1" /><path
         d="M 338.395,211.73638 L 405.0425,249.43062 L 486.71375,71.82625 L 427.8225,20.725"
         id="path75"
         style="fill:#ffffff;fill-opacity:1;fill-rule:nonzero;stroke:none;stroke-width:1.5;stroke-miterlimit:10;stroke-dasharray:none" /><path
         d="M 338.395,211.73638 L 405.0425,249.43062 L 486.71375,71.82625 L 427.8225,20.725 L 338.395,211.73638 z"
         id="path77"
         style="fill:none;stroke:#000000;stroke-width:1.5;stroke-linecap:round;stroke-linejoin:round;stroke-miterlimit:10;stroke-dasharray:none;stroke-opacity:1" /><path
         d="M 290.34375,207.89263 L 405.0425,249.43062 L 338.395,211.73638 L 229.9375,175.2315"
         id="path79"
         style="fill:#ffffff;fill-opacity:1;fill-rule:nonzero;stroke:none" /><path
         d="M 290.34375,207.89263 L 405.0425,249.43062 L 338.395,211.73638 L 229.9375,175.2315 L 290.34375,207.89263 z"
         id="path81"
         style="fill:none;stroke:#000000;stroke-width:1.5;stroke-linecap:round;stroke-linejoin:round;stroke-miterlimit:10;stroke-dasharray:none;stroke-opacity:1" /><path
         d="M 69.40775,137.25875 L 76.628875,140.13375 L 78.735875,185.51362 L 71.55475,181.47262"
         id="path83"
         style="fill:#ffffff;fill-opacity:1;fill-rule:nonzero;stroke:none;stroke-width:1;stroke-miterlimit:10;stroke-dasharray:none" /><path
         d="M 69.40775,137.25875 L 76.628875,140.13375 L 78.735875,185.51362 L 71.55475,181.47262 L 69.40775,137.25875 z"
         id="path85"
         style="fill:none;stroke:#000000;stroke-width:1;stroke-linecap:round;stroke-linejoin:round;stroke-miterlimit:10;stroke-dasharray:none;stroke-opacity:1" /><path
         d="M 3.2221625,188.69188 L 0.004394525,142.39625 L 69.40775,137.25875 L 71.55475,181.47262"
         id="path87"
         style="fill:#ffffff;fill-opacity:1;fill-rule:nonzero;stroke:none;stroke-width:1;stroke-miterlimit:10;stroke-dasharray:none" /><path
         d="M 3.2221625,188.69188 L 0.004394525,142.39625 L 69.40775,137.25875 L 71.55475,181.47262 L 3.2221625,188.69188 z"
         id="path89"
         style="fill:none;stroke:#000000;stroke-width:1;stroke-linecap:round;stroke-linejoin:round;stroke-miterlimit:10;stroke-dasharray:none;stroke-opacity:1" /><path
         d="M 71.55475,181.47262 L 78.735875,185.51362 L 8.80615,193.14263 L 3.2221625,188.69188"
         id="path91"
         style="fill:#ffffff;fill-opacity:1;fill-rule:nonzero;stroke:none;stroke-width:1;stroke-miterlimit:10;stroke-dasharray:none" /><path
         d="M 71.55475,181.47262 L 78.735875,185.51362 L 8.80615,193.14263 L 3.2221625,188.69188 L 71.55475,181.47262 z"
         id="path93"
         style="fill:none;stroke:#000000;stroke-width:1;stroke-linecap:round;stroke-linejoin:round;stroke-miterlimit:10;stroke-dasharray:none;stroke-opacity:1" /><path
         d="M 3.2221625,188.69188 L 8.80615,193.14263 L 5.576175,145.56625 L 0.004394525,142.39625"
         id="path95"
         style="fill:#ffffff;fill-opacity:1;fill-rule:nonzero;stroke:none;stroke-width:1;stroke-miterlimit:10;stroke-dasharray:none" /><path
         d="M 3.2221625,188.69188 L 8.80615,193.14263 L 5.576175,145.56625 L 0.004394525,142.39625 L 3.2221625,188.69188 z"
         id="path97"
         style="fill:none;stroke:#000000;stroke-width:1;stroke-linecap:round;stroke-linejoin:round;stroke-miterlimit:10;stroke-dasharray:none;stroke-opacity:1" /><path
         d="M 8.80615,193.14263 L 78.735875,185.51362 L 76.628875,140.13375 L 5.576175,145.56625"
         id="path99"
         style="fill:#ffffff;fill-opacity:1;fill-rule:nonzero;stroke:none;stroke-width:1;stroke-miterlimit:10;stroke-dasharray:none" /><path
         d="M 8.80615,193.14263 L 78.735875,185.51362 L 76.628875,140.13375 L 5.576175,145.56625 L 8.80615,193.14263 z"
         id="path101"
         style="fill:none;stroke:#000000;stroke-width:1;stroke-linecap:round;stroke-linejoin:round;stroke-miterlimit:10;stroke-dasharray:none;stroke-opacity:1" /><path
         d="M 5.576175,145.56625 L 76.628875,140.13375 L 69.40775,137.25875 L 0.004394525,142.39625"
         id="path103"
         style="fill:#ffffff;fill-opacity:1;fill-rule:nonzero;stroke:none;stroke-width:1;stroke-miterlimit:10;stroke-dasharray:none" /><path
         d="M 5.576175,145.56625 L 76.628875,140.13375 L 69.40775,137.25875 L 0.004394525,142.39625 L 5.576175,145.56625 z"
         id="path105"
         style="fill:none;stroke:#000000;stroke-width:1;stroke-linecap:round;stroke-linejoin:round;stroke-miterlimit:10;stroke-dasharray:none;stroke-opacity:1" /><path
         d="M 192.18125,233.22213 L 314.77625,297.06104 L 452.81125,1.21375 L 300.27625,8.80625 L 192.18125,233.22213 z"
         id="path107"
         style="fill:none;stroke:#ff0000;stroke-width:2;stroke-linecap:round;stroke-linejoin:round;stroke-miterlimit:10;stroke-dasharray:none;stroke-opacity:1" /><path
         d="M 84.5215,149.07 L 327.08625,44.5125"
         id="path109"
         style="fill:none;stroke:#0000ff;stroke-width:1.5;stroke-linecap:round;stroke-linejoin:round;stroke-miterlimit:10;stroke-dasharray:none;stroke-opacity:1" /><path
         d="M 323.6,48.09875 L 327.08625,44.5125 L 322.085,44.58375"
         id="path111"
         style="fill:#0000ff;fill-opacity:1;fill-rule:nonzero;stroke:none" /><path
         d="M 323.6,48.09875 L 327.08625,44.5125 L 322.085,44.58375 L 323.6,48.09875 z"
         id="path113"
         style="fill:none;stroke:#0000ff;stroke-width:0.625;stroke-linecap:round;stroke-linejoin:round;stroke-miterlimit:10;stroke-dasharray:none;stroke-opacity:1" /><path
         d="M 327.08625,44.5125 L 257.4475,234.63188"
         id="path115"
         style="fill:none;stroke:#800000;stroke-width:1.5;stroke-linecap:round;stroke-linejoin:round;stroke-miterlimit:10;stroke-dasharray:9,9;stroke-dashoffset:0;stroke-opacity:1" /><path
         d="M 84.5215,149.07 L 342.84375,90.4975"
         id="path117"
         style="fill:none;stroke:#0000ff;stroke-width:1.5;stroke-linecap:round;stroke-linejoin:round;stroke-miterlimit:10;stroke-dasharray:none;stroke-opacity:1" /><path
         d="M 338.76125,93.385 L 342.84375,90.4975 L 337.915,89.65375"
         id="path119"
         style="fill:#0000ff;fill-opacity:1;fill-rule:nonzero;stroke:none" /><path
         d="M 338.76125,93.385 L 342.84375,90.4975 L 337.915,89.65375 L 338.76125,93.385 z"
         id="path121"
         style="fill:none;stroke:#0000ff;stroke-width:0.625;stroke-linecap:round;stroke-linejoin:round;stroke-miterlimit:10;stroke-dasharray:none;stroke-opacity:1" /><path
         d="M 342.84375,90.4975 L 257.4475,234.63188"
         id="path123"
         style="fill:none;stroke:#800000;stroke-width:1.5;stroke-linecap:round;stroke-linejoin:round;stroke-miterlimit:10;stroke-dasharray:9,9;stroke-dashoffset:0;stroke-opacity:1" /><path
         d="M 84.5215,149.07 L 345.76875,149.1825"
         id="path125"
         style="fill:none;stroke:#0000ff;stroke-width:1.5;stroke-linecap:round;stroke-linejoin:round;stroke-miterlimit:10;stroke-dasharray:none;stroke-opacity:1" /><path
         d="M 341.15,151.09375 L 345.76875,149.1825 L 341.15125,147.26875"
         id="path127"
         style="fill:#0000ff;fill-opacity:1;fill-rule:nonzero;stroke:none" /><path
         d="M 341.15,151.09375 L 345.76875,149.1825 L 341.15125,147.26875 L 341.15,151.09375 z"
         id="path129"
         style="fill:none;stroke:#0000ff;stroke-width:0.625;stroke-linecap:round;stroke-linejoin:round;stroke-miterlimit:10;stroke-dasharray:none;stroke-opacity:1" /><path
         d="M 345.76875,149.1825 L 257.4475,234.63188"
         id="path131"
         style="fill:none;stroke:#800000;stroke-width:1.5;stroke-linecap:round;stroke-linejoin:round;stroke-miterlimit:10;stroke-dasharray:9,9;stroke-dashoffset:0;stroke-opacity:1" /><path
         d="M 84.5215,149.07 L 256.24625,168.595"
         id="path133"
         style="fill:none;stroke:#0000ff;stroke-width:1.5;stroke-linecap:round;stroke-linejoin:round;stroke-miterlimit:10;stroke-dasharray:none;stroke-opacity:1" /><path
         d="M 251.44125,169.97375 L 256.24625,168.595 L 251.8725,166.1725"
         id="path135"
         style="fill:#0000ff;fill-opacity:1;fill-rule:nonzero;stroke:none" /><path
         d="M 251.44125,169.97375 L 256.24625,168.595 L 251.8725,166.1725 L 251.44125,169.97375 z"
         id="path137"
         style="fill:none;stroke:#0000ff;stroke-width:0.625;stroke-linecap:round;stroke-linejoin:round;stroke-miterlimit:10;stroke-dasharray:none;stroke-opacity:1" /><path
         d="M 256.24625,168.595 L 257.4475,234.63188"
         id="path139"
         style="fill:none;stroke:#800000;stroke-width:1.5;stroke-linecap:round;stroke-linejoin:round;stroke-miterlimit:10;stroke-dasharray:9,9;stroke-dashoffset:0;stroke-opacity:1" /><path
         d="M 84.5215,149.07 L 127.57875,167.11375"
         id="path141"
         style="fill:none;stroke:#000000;stroke-width:1.5;stroke-linecap:round;stroke-linejoin:round;stroke-miterlimit:10;stroke-dasharray:none;stroke-opacity:1" /><path
         d="M 122.57913,167.0925 L 127.57875,167.11375 L 124.05812,163.56375"
         id="path143"
         style="fill:#000000;fill-opacity:1;fill-rule:nonzero;stroke:none" /><path
         d="M 122.57913,167.0925 L 127.57875,167.11375 L 124.05812,163.56375 L 122.57913,167.0925 z"
         id="path145"
         style="fill:none;stroke:#000000;stroke-width:1.5;stroke-linecap:round;stroke-linejoin:round;stroke-miterlimit:10;stroke-dasharray:none;stroke-opacity:1" /><path
         d="M 84.5215,149.07 L 89.30325,257.29588"
         id="path147"
         style="fill:none;stroke:#000000;stroke-width:1.5;stroke-linecap:round;stroke-linejoin:round;stroke-miterlimit:10;stroke-dasharray:none;stroke-opacity:1" /><path
         d="M 87.1875,252.76513 L 89.30325,257.29588 L 91.01125,252.59625"
         id="path149"
         style="fill:#000000;fill-opacity:1;fill-rule:nonzero;stroke:none" /><path
         d="M 87.1875,252.76513 L 89.30325,257.29588 L 91.01125,252.59625 L 87.1875,252.76513 z"
         id="path151"
         style="fill:none;stroke:#000000;stroke-width:0.625;stroke-linecap:round;stroke-linejoin:round;stroke-miterlimit:10;stroke-dasharray:none;stroke-opacity:1" /><path
         d="M 84.5215,149.07 L 185.8375,140.62875"
         id="path153"
         style="fill:none;stroke:#000000;stroke-width:1.5;stroke-linecap:round;stroke-linejoin:round;stroke-miterlimit:10;stroke-dasharray:none;stroke-opacity:1" /><path
         d="M 181.39375,142.91875 L 185.8375,140.62875 L 181.07625,139.105"
         id="path155"
         style="fill:#000000;fill-opacity:1;fill-rule:nonzero;stroke:none" /><path
         d="M 181.39375,142.91875 L 185.8375,140.62875 L 181.07625,139.105 L 181.39375,142.91875 z"
         id="path157"
         style="fill:none;stroke:#000000;stroke-width:0.625;stroke-linecap:round;stroke-linejoin:round;stroke-miterlimit:10;stroke-dasharray:none;stroke-opacity:1" /><path
         d="M 84.5215,149.07 L 178.06125,195.352"
         id="path159"
         style="fill:none;stroke:#000000;stroke-width:1.5;stroke-linecap:round;stroke-linejoin:round;stroke-miterlimit:10;stroke-dasharray:9,9;stroke-dashoffset:0;stroke-opacity:1" /><path
         d="M 257.4475,234.63188 L 178.06125,195.352"
         id="path161"
         style="fill:none;stroke:#000000;stroke-width:1.5;stroke-linecap:round;stroke-linejoin:round;stroke-miterlimit:10;stroke-dasharray:none;stroke-opacity:1" /><path
         d="M 183.05125,195.6855 L 178.06125,195.352 L 181.3525,199.11575"
         id="path163"
         style="fill:#000000;fill-opacity:1;fill-rule:nonzero;stroke:none" /><path
         d="M 183.05125,195.6855 L 178.06125,195.352 L 181.3525,199.11575 L 183.05125,195.6855 z"
         id="path165"
         style="fill:none;stroke:#000000;stroke-width:1.5;stroke-linecap:round;stroke-linejoin:round;stroke-miterlimit:10;stroke-dasharray:none;stroke-opacity:1" /><g
         transform="matrix(1.25,0,0,-1.25,0,297.5)"
         id="g167"><text
   transform="matrix(1,0,0,-1,105.696,101.597)"
   id="text169"><tspan
     x="0"
     y="0"
     id="tspan171"
     style="font-size:9.96263981px;font-variant:normal;font-weight:normal;fill:#000000;fill-opacity:1;fill-rule:nonzero;stroke:none;font-family:CMR10">ˆ</tspan></text>

<text
   transform="matrix(1,0,0,-1,105.063,101.597)"
   id="text173"><tspan
     x="0"
     y="0"
     id="tspan175"
     style="font-size:9.96263981px;font-variant:normal;font-weight:normal;fill:#000000;fill-opacity:1;fill-rule:nonzero;stroke:none;font-family:CMMI10">x</tspan></text>

<text
   transform="matrix(1,0,0,-1,110.757,100.102)"
   id="text177"><tspan
     x="0 3.6032701 7.9256101"
     y="0"
     id="tspan179"
     style="font-size:6.97384977px;font-variant:normal;font-weight:normal;fill:#000000;fill-opacity:1;fill-rule:nonzero;stroke:none;font-family:CMMI7">cam</tspan></text>

<text
   transform="matrix(1,0,0,-1,61.9588,22.2447)"
   id="text181"><tspan
     x="0"
     y="0"
     id="tspan183"
     style="font-size:9.96263981px;font-variant:normal;font-weight:normal;fill:#000000;fill-opacity:1;fill-rule:nonzero;stroke:none;font-family:CMR10">ˆ</tspan></text>

<text
   transform="matrix(1,0,0,-1,61.2749,22.2447)"
   id="text185"><tspan
     x="0"
     y="0"
     id="tspan187"
     style="font-size:9.96263981px;font-variant:normal;font-weight:normal;fill:#000000;fill-opacity:1;fill-rule:nonzero;stroke:none;font-family:CMMI10">y</tspan></text>

<text
   transform="matrix(1,0,0,-1,66.1596,20.7501)"
   id="text189"><tspan
     x="0 3.6032701 7.9256201"
     y="0"
     id="tspan191"
     style="font-size:6.97384977px;font-variant:normal;font-weight:normal;fill:#000000;fill-opacity:1;fill-rule:nonzero;stroke:none;font-family:CMMI7">cam</tspan></text>

<text
   transform="matrix(1,0,0,-1,152.268,122.785)"
   id="text193"><tspan
     x="0"
     y="0"
     id="tspan195"
     style="font-size:9.96263981px;font-variant:normal;font-weight:normal;fill:#000000;fill-opacity:1;fill-rule:nonzero;stroke:none;font-family:CMR10">ˆ</tspan></text>

<text
   transform="matrix(1,0,0,-1,151.67,122.785)"
   id="text197"><tspan
     x="0"
     y="0"
     id="tspan199"
     style="font-size:9.96263981px;font-variant:normal;font-weight:normal;fill:#000000;fill-opacity:1;fill-rule:nonzero;stroke:none;font-family:CMMI10">z</tspan></text>

<text
   transform="matrix(1,0,0,-1,156.303,121.291)"
   id="text201"><tspan
     x="0 3.6032701 7.9256101"
     y="0"
     id="tspan203"
     style="font-size:6.97384977px;font-variant:normal;font-weight:normal;fill:#000000;fill-opacity:1;fill-rule:nonzero;stroke:none;font-family:CMMI7">cam</tspan></text>

<text
   transform="matrix(1,0,0,-1,145.048,83.8183)"
   id="text205"><tspan
     x="0"
     y="0"
     id="tspan207"
     style="font-size:9.96263981px;font-variant:normal;font-weight:normal;fill:#000000;fill-opacity:1;fill-rule:nonzero;stroke:none;font-family:CMR10">ˆ</tspan></text>

<text
   transform="matrix(1,0,0,-1,144.548,83.8183)"
   id="text209"><tspan
     x="0"
     y="0"
     id="tspan211"
     style="font-size:9.96263981px;font-variant:normal;font-weight:normal;fill:#000000;fill-opacity:1;fill-rule:nonzero;stroke:none;font-family:CMMI10">n</tspan><tspan
     x="-16.312901"
     y="7.69102"
     id="tspan213"
     style="font-size:9.96263981px;font-variant:normal;font-weight:normal;fill:#000000;fill-opacity:1;fill-rule:nonzero;stroke:none;font-family:CMMI10">d</tspan><tspan
     x="111.688"
     y="-123.067"
     id="tspan217"
     style="font-size:9.96263981px;font-variant:normal;font-weight:normal;fill:#000000;fill-opacity:1;fill-rule:nonzero;stroke:none;font-family:CMMI10">P</tspan></text>

<text
   transform="matrix(1,0,0,-1,262.632,205.39)"
   id="text219"><tspan
     x="0"
     y="0"
     id="tspan221"
     style="font-size:6.97384977px;font-variant:normal;font-weight:normal;fill:#000000;fill-opacity:1;fill-rule:nonzero;stroke:none;font-family:CMR7">0</tspan></text>

<text
   transform="matrix(1,0,0,-1,270.305,172.615)"
   id="text223"><tspan
     x="-1.46328"
     y="2.5183599"
     id="tspan227"
     style="font-size:9.96263981px;font-variant:normal;font-weight:normal;fill:#000000;fill-opacity:1;fill-rule:nonzero;stroke:none;font-family:CMMI10">P</tspan></text>

<text
   transform="matrix(1,0,0,-1,275.238,168.602)"
   id="text229"><tspan
     x="0"
     y="0"
     id="tspan231"
     style="font-size:6.97384977px;font-variant:normal;font-weight:normal;fill:#000000;fill-opacity:1;fill-rule:nonzero;stroke:none;font-family:CMR7">1</tspan></text>

<text
   transform="matrix(1,0,0,-1,272.645,125.666)"
   id="text233"><tspan
     x="-1.46328"
     y="2.5183599"
     id="tspan237"
     style="font-size:9.96263981px;font-variant:normal;font-weight:normal;fill:#000000;fill-opacity:1;fill-rule:nonzero;stroke:none;font-family:CMMI10">P</tspan></text>

<text
   transform="matrix(1,0,0,-1,277.578,121.654)"
   id="text239"><tspan
     x="0"
     y="0"
     id="tspan241"
     style="font-size:6.97384977px;font-variant:normal;font-weight:normal;fill:#000000;fill-opacity:1;fill-rule:nonzero;stroke:none;font-family:CMR7">2</tspan></text>

<text
   transform="matrix(1,0,0,-1,201.028,110.137)"
   id="text243"><tspan
     x="-1.46328"
     y="2.5183599"
     id="tspan247"
     style="font-size:9.96263981px;font-variant:normal;font-weight:normal;fill:#000000;fill-opacity:1;fill-rule:nonzero;stroke:none;font-family:CMMI10">P</tspan></text>

<text
   transform="matrix(1,0,0,-1,205.961,106.124)"
   id="text249"><tspan
     x="0"
     y="0"
     id="tspan251"
     style="font-size:6.97384977px;font-variant:normal;font-weight:normal;fill:#000000;fill-opacity:1;fill-rule:nonzero;stroke:none;font-family:CMR7">3</tspan></text>

</g><path
         style="fill:none;stroke:#000000;stroke-width:1.5;stroke-linecap:round;stroke-linejoin:round;stroke-miterlimit:10;stroke-dasharray:9,9;stroke-dashoffset:0;stroke-opacity:1"
         id="path3498"
         d="M 84.5215,149.07 L 178.06125,195.352" /></g></g></svg>