<svg xmlns="http://www.w3.org/2000/svg" xmlns:xlink="http://www.w3.org/1999/xlink" width="1323.2" height="1870.4"><g transform="translate(0 0)"><path d="M0 0h1323.2v1870.4H0z" fill="#fff"/><path d="M614 20h128l-32 120H582z" stroke="#000" stroke-width="2" fill="#fff"/><use xlink:href="#a" transform="matrix(1,0,0,1,587,25) translate(38.574999999999996 58.6)"/><path d="M581.6 200h160v120h-160z" stroke="#000" stroke-width="2" fill="#fff"/><use xlink:href="#b" transform="matrix(1,0,0,1,586.5999999999999,205) translate(16.574999999999996 47.8)"/><use xlink:href="#c" transform="matrix(1,0,0,1,586.5999999999999,205) translate(103.42500000000001 47.8)"/><use xlink:href="#d" transform="matrix(1,0,0,1,586.5999999999999,205) translate(16.074999999999996 69.4)"/><path d="M582 400h160v120H582z" stroke="#000" stroke-width="2" fill="#fff"/><use xlink:href="#e" transform="matrix(1,0,0,1,587,405) translate(32.05 47.8)"/><use xlink:href="#f" transform="matrix(1,0,0,1,587,405) translate(41.05 69.4)"/><path d="M440 508c0 6.63-26.86 12-60 12s-60-5.37-60-12v-96c0-6.63 26.86-12 60-12s60 5.37 60 12z" stroke="#000" stroke-width="2" fill="#fff"/><path d="M440 412c0 6.63-26.86 12-60 12s-60-5.37-60-12" stroke="#000" stroke-width="2" fill="none"/><use xlink:href="#g" transform="matrix(1,0,0,1,325,429) translate(11.074999999999996 46.6)"/><use xlink:href="#h" transform="matrix(1,0,0,1,325,429) translate(41.025 46.6)"/><path d="M662 620l80 60-80 60-80-60z" stroke="#000" stroke-width="2" fill="#fff"/><use xlink:href="#i" transform="matrix(1,0,0,1,587,625) translate(30.549999999999997 47.8)"/><use xlink:href="#j" transform="matrix(1,0,0,1,587,625) translate(45.025 69.4)"/><path d="M880 1320h160v120H880z" stroke="#000" stroke-width="2" fill="#fff"/><use xlink:href="#k" transform="matrix(1,0,0,1,885,1325) translate(45.574999999999996 58.6)"/><path d="M160 840h160v120H160z" stroke="#000" stroke-width="2" fill="#fff"/><use xlink:href="#l" transform="matrix(1,0,0,1,165,845) translate(23.574999999999996 47.8)"/><use xlink:href="#m" transform="matrix(1,0,0,1,165,845) translate(30.599999999999994 69.4)"/><path d="M540 948c0 6.63-26.86 12-60 12s-60-5.37-60-12v-96c0-6.63 26.86-12 60-12s60 5.37 60 12z" stroke="#000" stroke-width="2" fill="#fff"/><path d="M540 852c0 6.63-26.86 12-60 12s-60-5.37-60-12" stroke="#000" stroke-width="2" fill="none"/><use xlink:href="#n" transform="matrix(1,0,0,1,425,869) translate(12.049999999999997 25)"/><use xlink:href="#o" transform="matrix(1,0,0,1,425,869) translate(30.549999999999997 46.6)"/><use xlink:href="#p" transform="matrix(1,0,0,1,425,869) translate(13.049999999999997 68.2)"/><path d="M280 1040h160v120H280z" stroke="#000" stroke-width="2" fill="#fff"/><use xlink:href="#q" transform="matrix(1,0,0,1,285,1045) translate(14.549999999999997 37)"/><use xlink:href="#c" transform="matrix(1,0,0,1,285,1045) translate(105.45 37)"/><use xlink:href="#r" transform="matrix(1,0,0,1,285,1045) translate(39.05 58.6)"/><use xlink:href="#s" transform="matrix(1,0,0,1,285,1045) translate(36.075 80.20000000000002)"/><path d="M280 1240h160v120H280z" stroke="#000" stroke-width="2" fill="#fff"/><use xlink:href="#t" transform="matrix(1,0,0,1,285,1245) translate(24.14999999999999 47.8)"/><use xlink:href="#u" transform="matrix(1,0,0,1,285,1245) translate(48.05 69.4)"/><path d="M280 1440h160v120H280z" stroke="#000" stroke-width="2" fill="#fff"/><use xlink:href="#v" transform="matrix(1,0,0,1,285,1445) translate(37.55 47.8)"/><use xlink:href="#w" transform="matrix(1,0,0,1,285,1445) translate(24.599999999999994 69.4)"/><path d="M280 1660h160v120H280z" stroke="#000" stroke-width="2" fill="#fff"/><use xlink:href="#x" transform="matrix(1,0,0,1,285,1665) translate(39.05 47.8)"/><use xlink:href="#y" transform="matrix(1,0,0,1,285,1665) translate(30.549999999999997 69.4)"/><path d="M662 140v59" stroke="#000" stroke-width="2" fill="none"/><path d="M662 199l-4.64-14.27h9.28z"/><path d="M662.73 200h-1.46L656 183.73h12zm-4-14.27l3.27 10.03 3.26-10.03z"/><path d="M661.6 320v40h.4v40" stroke="#000" stroke-width="2" fill="none"/><path d="M662 400l-4.64-14.27h9.28z"/><path d="M663.05 400h-2.1L656 384.73h12zm-4.3-13.27l3.25 10.03 3.26-10.03z"/><path d="M440 460h141" stroke="#000" stroke-width="2" fill="none"/><path d="M581 460l-14.27 4.64v-9.28z"/><path d="M582 459.27v1.46L565.73 466v-12zm-14.27 4l10.03-3.27-10.03-3.26z"/><path d="M662 520v98.75" stroke="#000" stroke-width="2" fill="none"/><path d="M662 618.75l-4.64-14.27h9.28z"/><path d="M662.52 620.4l-.52-.4-.52.4-5.5-16.92h12.03zm-3.78-14.92L662 615.5l3.26-10.02z"/><path d="M742 680h218v640" stroke="#000" stroke-width="2" fill="none"/><path d="M742 681h-1.33l1.33-1-1.33-1H742zM960 1320l-4.64-14.27h9.28z"/><path d="M961.05 1320h-2.1l-4.96-15.27h12zm-4.3-13.27l3.25 10.03 3.26-10.03z"/><use xlink:href="#z" transform="matrix(1,0,0,1,792.5019086596507,654.4000000000001) translate(0 14.4)"/><use xlink:href="#A" transform="matrix(1,0,0,1,792.5019086596507,654.4000000000001) translate(59.85 14.4)"/><path d="M582 680H360v80H240v80" stroke="#000" stroke-width="2" fill="none"/><path d="M582 680l1.33 1H582v-2h1.33zM240 840l-4.64-14.27h9.28z"/><path d="M241.05 840h-2.1L234 824.73h12zm-4.3-13.27l3.25 10.03 3.26-10.03z"/><use xlink:href="#B" transform="matrix(1,0,0,1,272.14751873539427,734.4) translate(0 14.4)"/><path d="M582 680H360v80h120v80" stroke="#000" stroke-width="2" fill="none"/><path d="M582 680l1.33 1H582v-2h1.33zM480 840l-4.64-14.27h9.28z"/><path d="M481.04 840.04L480 840l-1.04.04-4.97-15.3h12zm-4.3-13.3l3.26 10.02 3.26-10.03z"/><use xlink:href="#C" transform="matrix(1,0,0,1,396.5236969015115,654.4000000000001) translate(0 14.4)"/><use xlink:href="#D" transform="matrix(1,0,0,1,396.5236969015115,654.4000000000001) translate(58.900000000000006 14.4)"/><use xlink:href="#E" transform="matrix(1,0,0,1,396.5236969015115,654.4000000000001) translate(93.9 14.4)"/><path d="M480 960v40H360v40" stroke="#000" stroke-width="2" fill="none"/><path d="M480 960h-1v-.04zm1 0h-1l1-.03zM360 1040l-4.64-14.27h9.28z"/><path d="M361.05 1040h-2.1l-4.96-15.27h12zm-4.3-13.27l3.25 10.03 3.26-10.03z"/><path d="M240 960v40h120v40" stroke="#000" stroke-width="2" fill="none"/><path d="M360 1040l-4.64-14.27h9.28z"/><path d="M361.05 1040h-2.1l-4.96-15.27h12zm-4.3-13.27l3.25 10.03 3.26-10.03z"/><path d="M360 1160v79" stroke="#000" stroke-width="2" fill="none"/><path d="M360 1239l-4.64-14.27h9.28z"/><path d="M360.73 1240h-1.46l-5.28-16.27h12zm-4-14.27l3.27 10.03 3.26-10.03z"/><path d="M360 1360v79" stroke="#000" stroke-width="2" fill="none"/><path d="M360 1439l-4.64-14.27h9.28z"/><path d="M360.73 1440h-1.46l-5.28-16.27h12zm-4-14.27l3.27 10.03 3.26-10.03z"/><path d="M360 1560v100" stroke="#000" stroke-width="2" fill="none"/><path d="M360 1660l-4.64-14.27h9.28z"/><path d="M361.05 1660h-2.1l-4.96-15.27h12zm-4.3-13.27l3.25 10.03 3.26-10.03z"/><path d="M440 1720h520v-280" stroke="#000" stroke-width="2" fill="none"/><path d="M964.64 1454.27h-9.28L960 1440z"/><path d="M966 1455.27h-12l4.95-15.27h2.1zm-9.26-2h6.52l-3.26-10.03z"/><path d="M1040 1380h160V460H742" stroke="#000" stroke-width="2" fill="none"/><path d="M756.27 464.64L742 460l14.27-4.64z"/><path d="M757.27 466L742 461.06v-2.1l15.27-4.96zm-12.03-6l10.03 3.26v-6.52z"/><defs><path d="M212-179c-10-28-35-45-73-45-59 0-87 40-87 99 0 60 29 101 89 101 43 0 62-24 78-52l27 14C228-24 195 4 139 4 59 4 22-46 18-125c-6-104 99-153 187-111 19 9 31 26 39 46" id="F"/><path d="M141-36C126-15 110 5 73 4 37 3 15-17 15-53c-1-64 63-63 125-63 3-35-9-54-41-54-24 1-41 7-42 31l-33-3c5-37 33-52 76-52 45 0 72 20 72 64v82c-1 20 7 32 28 27v20c-31 9-61-2-59-35zM48-53c0 20 12 33 32 33 41-3 63-29 60-74-43 2-92-5-92 41" id="G"/><path d="M210-169c-67 3-38 105-44 169h-31v-121c0-29-5-50-35-48C34-165 62-65 56 0H25l-1-190h30c1 10-1 24 2 32 10-44 99-50 107 0 11-21 27-35 58-36 85-2 47 119 55 194h-31v-121c0-29-5-49-35-48" id="H"/><path d="M100-194c63 0 86 42 84 106H49c0 40 14 67 53 68 26 1 43-12 49-29l28 8c-11 28-37 45-77 45C44 4 14-33 15-96c1-61 26-98 85-98zm52 81c6-60-76-77-97-28-3 7-6 17-6 28h103" id="I"/><path d="M114-163C36-179 61-72 57 0H25l-1-190h30c1 12-1 29 2 39 6-27 23-49 58-41v29" id="J"/><path d="M135-143c-3-34-86-38-87 0 15 53 115 12 119 90S17 21 10-45l28-5c4 36 97 45 98 0-10-56-113-15-118-90-4-57 82-63 122-42 12 7 21 19 24 35" id="K"/><g id="a"><use transform="matrix(0.05,0,0,0.05,0,0)" xlink:href="#F"/><use transform="matrix(0.05,0,0,0.05,12.950000000000001,0)" xlink:href="#G"/><use transform="matrix(0.05,0,0,0.05,22.950000000000003,0)" xlink:href="#H"/><use transform="matrix(0.05,0,0,0.05,37.900000000000006,0)" xlink:href="#I"/><use transform="matrix(0.05,0,0,0.05,47.900000000000006,0)" xlink:href="#J"/><use transform="matrix(0.05,0,0,0.05,53.85,0)" xlink:href="#G"/><use transform="matrix(0.05,0,0,0.05,63.85,0)" xlink:href="#K"/></g><path d="M233-177c-1 41-23 64-60 70L243 0h-38l-65-103H63V0H30v-248c88 3 205-21 203 71zM63-129c60-2 137 13 137-47 0-61-80-42-137-45v92" id="L"/><path d="M96-169c-40 0-48 33-48 73s9 75 48 75c24 0 41-14 43-38l32 2c-6 37-31 61-74 61-59 0-76-41-82-99-10-93 101-131 147-64 4 7 5 14 7 22l-32 3c-4-21-16-35-41-35" id="M"/><path d="M100-194c62-1 85 37 85 99 1 63-27 99-86 99S16-35 15-95c0-66 28-99 85-99zM99-20c44 1 53-31 53-75 0-43-8-75-51-75s-53 32-53 75 10 74 51 75" id="N"/><path d="M85-194c31 0 48 13 60 33l-1-100h32l1 261h-30c-2-10 0-23-3-31C134-8 116 4 85 4 32 4 16-35 15-94c0-66 23-100 70-100zm9 24c-40 0-46 34-46 75 0 40 6 74 45 74 42 0 51-32 51-76 0-42-9-74-50-73" id="O"/><path d="M24-231v-30h32v30H24zM24 0v-190h32V0H24" id="P"/><path d="M117-194c89-4 53 116 60 194h-32v-121c0-31-8-49-39-48C34-167 62-67 57 0H25l-1-190h30c1 10-1 24 2 32 11-22 29-35 61-36" id="Q"/><path d="M177-190C167-65 218 103 67 71c-23-6-38-20-44-43l32-5c15 47 100 32 89-28v-30C133-14 115 1 83 1 29 1 15-40 15-95c0-56 16-97 71-98 29-1 48 16 59 35 1-10 0-23 2-32h30zM94-22c36 0 50-32 50-73 0-42-14-75-50-75-39 0-46 34-46 75s6 73 46 73" id="R"/><g id="b"><use transform="matrix(0.05,0,0,0.05,0,0)" xlink:href="#L"/><use transform="matrix(0.05,0,0,0.05,12.950000000000001,0)" xlink:href="#I"/><use transform="matrix(0.05,0,0,0.05,22.950000000000003,0)" xlink:href="#M"/><use transform="matrix(0.05,0,0,0.05,31.950000000000003,0)" xlink:href="#N"/><use transform="matrix(0.05,0,0,0.05,41.95,0)" xlink:href="#J"/><use transform="matrix(0.05,0,0,0.05,47.900000000000006,0)" xlink:href="#O"/><use transform="matrix(0.05,0,0,0.05,57.900000000000006,0)" xlink:href="#P"/><use transform="matrix(0.05,0,0,0.05,61.85,0)" xlink:href="#Q"/><use transform="matrix(0.05,0,0,0.05,71.85000000000001,0)" xlink:href="#R"/></g><g id="c"><use transform="matrix(0.05,0,0,0.05,0,0)" xlink:href="#G"/><use transform="matrix(0.05,0,0,0.05,10,0)" xlink:href="#Q"/><use transform="matrix(0.05,0,0,0.05,20,0)" xlink:href="#O"/></g><path d="M185-189c-5-48-123-54-124 2 14 75 158 14 163 119 3 78-121 87-175 55-17-10-28-26-33-46l33-7c5 56 141 63 141-1 0-78-155-14-162-118-5-82 145-84 179-34 5 7 8 16 11 25" id="S"/><path d="M179-190L93 31C79 59 56 82 12 73V49c39 6 53-20 64-50L1-190h34L92-34l54-156h33" id="T"/><path d="M9 0v-24l116-142H16v-24h144v24L44-24h123V0H9" id="U"/><path d="M59-47c-2 24 18 29 38 22v24C64 9 27 4 27-40v-127H5v-23h24l9-43h21v43h35v23H59v120" id="V"/><g id="d"><use transform="matrix(0.05,0,0,0.05,0,0)" xlink:href="#S"/><use transform="matrix(0.05,0,0,0.05,12,0)" xlink:href="#T"/><use transform="matrix(0.05,0,0,0.05,21,0)" xlink:href="#Q"/><use transform="matrix(0.05,0,0,0.05,31,0)" xlink:href="#M"/><use transform="matrix(0.05,0,0,0.05,40,0)" xlink:href="#J"/><use transform="matrix(0.05,0,0,0.05,45.95,0)" xlink:href="#N"/><use transform="matrix(0.05,0,0,0.05,55.95,0)" xlink:href="#Q"/><use transform="matrix(0.05,0,0,0.05,65.95,0)" xlink:href="#P"/><use transform="matrix(0.05,0,0,0.05,69.9,0)" xlink:href="#U"/><use transform="matrix(0.05,0,0,0.05,78.9,0)" xlink:href="#G"/><use transform="matrix(0.05,0,0,0.05,88.9,0)" xlink:href="#V"/><use transform="matrix(0.05,0,0,0.05,93.9,0)" xlink:href="#P"/><use transform="matrix(0.05,0,0,0.05,97.85000000000001,0)" xlink:href="#N"/><use transform="matrix(0.05,0,0,0.05,107.85000000000001,0)" xlink:href="#Q"/></g><path d="M30-248c87 1 191-15 191 75 0 78-77 80-158 76V0H30v-248zm33 125c57 0 124 11 124-50 0-59-68-47-124-48v98" id="W"/><g id="e"><use transform="matrix(0.05,0,0,0.05,0,0)" xlink:href="#W"/><use transform="matrix(0.05,0,0,0.05,12,0)" xlink:href="#I"/><use transform="matrix(0.05,0,0,0.05,22,0)" xlink:href="#O"/><use transform="matrix(0.05,0,0,0.05,32,0)" xlink:href="#I"/><use transform="matrix(0.05,0,0,0.05,42,0)" xlink:href="#K"/><use transform="matrix(0.05,0,0,0.05,51,0)" xlink:href="#V"/><use transform="matrix(0.05,0,0,0.05,56,0)" xlink:href="#J"/><use transform="matrix(0.05,0,0,0.05,61.95,0)" xlink:href="#P"/><use transform="matrix(0.05,0,0,0.05,65.9,0)" xlink:href="#G"/><use transform="matrix(0.05,0,0,0.05,75.9,0)" xlink:href="#Q"/></g><path d="M30-248c118-7 216 8 213 122C240-48 200 0 122 0H30v-248zM63-27c89 8 146-16 146-99s-60-101-146-95v194" id="X"/><g id="f"><use transform="matrix(0.05,0,0,0.05,0,0)" xlink:href="#X"/><use transform="matrix(0.05,0,0,0.05,12.950000000000001,0)" xlink:href="#I"/><use transform="matrix(0.05,0,0,0.05,22.950000000000003,0)" xlink:href="#V"/><use transform="matrix(0.05,0,0,0.05,27.950000000000003,0)" xlink:href="#I"/><use transform="matrix(0.05,0,0,0.05,37.95,0)" xlink:href="#M"/><use transform="matrix(0.05,0,0,0.05,46.95,0)" xlink:href="#V"/><use transform="matrix(0.05,0,0,0.05,51.95,0)" xlink:href="#N"/><use transform="matrix(0.05,0,0,0.05,61.95,0)" xlink:href="#J"/></g><g id="g"><use transform="matrix(0.05,0,0,0.05,0,0)" xlink:href="#W"/><use transform="matrix(0.05,0,0,0.05,12,0)" xlink:href="#X"/></g><path d="M240 0l2-218c-23 76-54 145-80 218h-23L58-218 59 0H30v-248h44l77 211c21-75 51-140 76-211h43V0h-30" id="Y"/><path d="M24 0v-261h32V0H24" id="Z"/><g id="h"><use transform="matrix(0.05,0,0,0.05,0,0)" xlink:href="#Y"/><use transform="matrix(0.05,0,0,0.05,14.950000000000001,0)" xlink:href="#N"/><use transform="matrix(0.05,0,0,0.05,24.950000000000003,0)" xlink:href="#O"/><use transform="matrix(0.05,0,0,0.05,34.95,0)" xlink:href="#I"/><use transform="matrix(0.05,0,0,0.05,44.95,0)" xlink:href="#Z"/><use transform="matrix(0.05,0,0,0.05,48.900000000000006,0)" xlink:href="#K"/></g><g id="i"><use transform="matrix(0.05,0,0,0.05,0,0)" xlink:href="#W"/><use transform="matrix(0.05,0,0,0.05,12,0)" xlink:href="#J"/><use transform="matrix(0.05,0,0,0.05,17.95,0)" xlink:href="#N"/><use transform="matrix(0.05,0,0,0.05,27.950000000000003,0)" xlink:href="#M"/><use transform="matrix(0.05,0,0,0.05,36.95,0)" xlink:href="#I"/><use transform="matrix(0.05,0,0,0.05,46.95,0)" xlink:href="#K"/><use transform="matrix(0.05,0,0,0.05,55.95,0)" xlink:href="#K"/><use transform="matrix(0.05,0,0,0.05,64.95,0)" xlink:href="#P"/><use transform="matrix(0.05,0,0,0.05,68.9,0)" xlink:href="#Q"/><use transform="matrix(0.05,0,0,0.05,78.9,0)" xlink:href="#R"/></g><path d="M106-169C34-169 62-67 57 0H25v-261h32l-1 103c12-21 28-36 61-36 89 0 53 116 60 194h-32v-121c2-32-8-49-39-48" id="aa"/><g id="j"><use transform="matrix(0.05,0,0,0.05,0,0)" xlink:href="#Y"/><use transform="matrix(0.05,0,0,0.05,14.950000000000001,0)" xlink:href="#I"/><use transform="matrix(0.05,0,0,0.05,24.950000000000003,0)" xlink:href="#V"/><use transform="matrix(0.05,0,0,0.05,29.950000000000003,0)" xlink:href="#aa"/><use transform="matrix(0.05,0,0,0.05,39.95,0)" xlink:href="#N"/><use transform="matrix(0.05,0,0,0.05,49.95,0)" xlink:href="#O"/></g><path d="M115-194c55 1 70 41 70 98S169 2 115 4C84 4 66-9 55-30l1 105H24l-1-265h31l2 30c10-21 28-34 59-34zm-8 174c40 0 45-34 45-75s-6-73-45-74c-42 0-51 32-51 76 0 43 10 73 51 73" id="ab"/><g id="k"><use transform="matrix(0.05,0,0,0.05,0,0)" xlink:href="#X"/><use transform="matrix(0.05,0,0,0.05,12.950000000000001,0)" xlink:href="#P"/><use transform="matrix(0.05,0,0,0.05,16.900000000000002,0)" xlink:href="#K"/><use transform="matrix(0.05,0,0,0.05,25.900000000000002,0)" xlink:href="#ab"/><use transform="matrix(0.05,0,0,0.05,35.900000000000006,0)" xlink:href="#Z"/><use transform="matrix(0.05,0,0,0.05,39.85000000000001,0)" xlink:href="#G"/><use transform="matrix(0.05,0,0,0.05,49.85000000000001,0)" xlink:href="#T"/></g><path d="M197 0v-115H63V0H30v-248h33v105h134v-105h34V0h-34" id="ac"/><g id="l"><use transform="matrix(0.05,0,0,0.05,0,0)" xlink:href="#ac"/><use transform="matrix(0.05,0,0,0.05,12.950000000000001,0)" xlink:href="#N"/><use transform="matrix(0.05,0,0,0.05,22.950000000000003,0)" xlink:href="#H"/><use transform="matrix(0.05,0,0,0.05,37.900000000000006,0)" xlink:href="#N"/><use transform="matrix(0.05,0,0,0.05,47.900000000000006,0)" xlink:href="#R"/><use transform="matrix(0.05,0,0,0.05,57.900000000000006,0)" xlink:href="#J"/><use transform="matrix(0.05,0,0,0.05,63.85,0)" xlink:href="#G"/><use transform="matrix(0.05,0,0,0.05,73.85000000000001,0)" xlink:href="#ab"/><use transform="matrix(0.05,0,0,0.05,83.85000000000001,0)" xlink:href="#aa"/><use transform="matrix(0.05,0,0,0.05,93.85000000000001,0)" xlink:href="#T"/></g><path d="M84 4C-5 8 30-112 23-190h32v120c0 31 7 50 39 49 72-2 45-101 50-169h31l1 190h-30c-1-10 1-25-2-33-11 22-28 36-60 37" id="ad"/><g id="m"><use transform="matrix(0.05,0,0,0.05,0,0)" xlink:href="#F"/><use transform="matrix(0.05,0,0,0.05,12.950000000000001,0)" xlink:href="#G"/><use transform="matrix(0.05,0,0,0.05,22.950000000000003,0)" xlink:href="#Z"/><use transform="matrix(0.05,0,0,0.05,26.900000000000002,0)" xlink:href="#M"/><use transform="matrix(0.05,0,0,0.05,35.900000000000006,0)" xlink:href="#ad"/><use transform="matrix(0.05,0,0,0.05,45.900000000000006,0)" xlink:href="#Z"/><use transform="matrix(0.05,0,0,0.05,49.85000000000001,0)" xlink:href="#G"/><use transform="matrix(0.05,0,0,0.05,59.85,0)" xlink:href="#V"/><use transform="matrix(0.05,0,0,0.05,64.85000000000001,0)" xlink:href="#P"/><use transform="matrix(0.05,0,0,0.05,68.80000000000001,0)" xlink:href="#N"/><use transform="matrix(0.05,0,0,0.05,78.80000000000001,0)" xlink:href="#Q"/></g><path d="M141 0L90-78 38 0H4l68-98-65-92h35l48 74 47-74h35l-64 92 68 98h-35" id="ae"/><g id="n"><use transform="matrix(0.05,0,0,0.05,0,0)" xlink:href="#F"/><use transform="matrix(0.05,0,0,0.05,12.950000000000001,0)" xlink:href="#N"/><use transform="matrix(0.05,0,0,0.05,22.950000000000003,0)" xlink:href="#Q"/><use transform="matrix(0.05,0,0,0.05,32.95,0)" xlink:href="#V"/><use transform="matrix(0.05,0,0,0.05,37.95,0)" xlink:href="#I"/><use transform="matrix(0.05,0,0,0.05,47.95,0)" xlink:href="#ae"/><use transform="matrix(0.05,0,0,0.05,56.95,0)" xlink:href="#V"/><use transform="matrix(0.05,0,0,0.05,61.95,0)" xlink:href="#ad"/><use transform="matrix(0.05,0,0,0.05,71.95,0)" xlink:href="#G"/><use transform="matrix(0.05,0,0,0.05,81.95,0)" xlink:href="#Z"/></g><g id="o"><use transform="matrix(0.05,0,0,0.05,0,0)" xlink:href="#Y"/><use transform="matrix(0.05,0,0,0.05,14.950000000000001,0)" xlink:href="#N"/><use transform="matrix(0.05,0,0,0.05,24.950000000000003,0)" xlink:href="#O"/><use transform="matrix(0.05,0,0,0.05,34.95,0)" xlink:href="#I"/><use transform="matrix(0.05,0,0,0.05,44.95,0)" xlink:href="#Z"/></g><path d="M143 4C61 4 22-44 18-125c-5-107 100-154 193-111 17 8 29 25 37 43l-32 9c-13-25-37-40-76-40-61 0-88 39-88 99 0 61 29 100 91 101 35 0 62-11 79-27v-45h-74v-28h105v86C228-13 192 4 143 4" id="af"/><g id="p"><use transform="matrix(0.05,0,0,0.05,0,0)" xlink:href="#af"/><use transform="matrix(0.05,0,0,0.05,14,0)" xlink:href="#I"/><use transform="matrix(0.05,0,0,0.05,24,0)" xlink:href="#Q"/><use transform="matrix(0.05,0,0,0.05,34,0)" xlink:href="#I"/><use transform="matrix(0.05,0,0,0.05,44,0)" xlink:href="#J"/><use transform="matrix(0.05,0,0,0.05,49.95,0)" xlink:href="#G"/><use transform="matrix(0.05,0,0,0.05,59.95,0)" xlink:href="#P"/><use transform="matrix(0.05,0,0,0.05,63.900000000000006,0)" xlink:href="#N"/><use transform="matrix(0.05,0,0,0.05,73.9,0)" xlink:href="#Q"/></g><g id="q"><use transform="matrix(0.05,0,0,0.05,0,0)" xlink:href="#W"/><use transform="matrix(0.05,0,0,0.05,12,0)" xlink:href="#I"/><use transform="matrix(0.05,0,0,0.05,22,0)" xlink:href="#O"/><use transform="matrix(0.05,0,0,0.05,32,0)" xlink:href="#I"/><use transform="matrix(0.05,0,0,0.05,42,0)" xlink:href="#K"/><use transform="matrix(0.05,0,0,0.05,51,0)" xlink:href="#V"/><use transform="matrix(0.05,0,0,0.05,56,0)" xlink:href="#J"/><use transform="matrix(0.05,0,0,0.05,61.95,0)" xlink:href="#P"/><use transform="matrix(0.05,0,0,0.05,65.9,0)" xlink:href="#G"/><use transform="matrix(0.05,0,0,0.05,75.9,0)" xlink:href="#Q"/></g><g id="r"><use transform="matrix(0.05,0,0,0.05,0,0)" xlink:href="#K"/><use transform="matrix(0.05,0,0,0.05,9,0)" xlink:href="#I"/><use transform="matrix(0.05,0,0,0.05,19,0)" xlink:href="#H"/><use transform="matrix(0.05,0,0,0.05,33.95,0)" xlink:href="#G"/><use transform="matrix(0.05,0,0,0.05,43.95,0)" xlink:href="#Q"/><use transform="matrix(0.05,0,0,0.05,53.95,0)" xlink:href="#V"/><use transform="matrix(0.05,0,0,0.05,58.95,0)" xlink:href="#P"/><use transform="matrix(0.05,0,0,0.05,62.900000000000006,0)" xlink:href="#M"/></g><path d="M24-231v-30h32v30H24zM-9 49c24 4 33-6 33-30v-209h32V24c2 40-23 58-65 49V49" id="ag"/><g id="s"><use transform="matrix(0.05,0,0,0.05,0,0)" xlink:href="#ab"/><use transform="matrix(0.05,0,0,0.05,10,0)" xlink:href="#J"/><use transform="matrix(0.05,0,0,0.05,15.949999999999998,0)" xlink:href="#N"/><use transform="matrix(0.05,0,0,0.05,25.950000000000003,0)" xlink:href="#ag"/><use transform="matrix(0.05,0,0,0.05,29.899999999999995,0)" xlink:href="#I"/><use transform="matrix(0.05,0,0,0.05,39.9,0)" xlink:href="#M"/><use transform="matrix(0.05,0,0,0.05,48.9,0)" xlink:href="#V"/><use transform="matrix(0.05,0,0,0.05,53.900000000000006,0)" xlink:href="#P"/><use transform="matrix(0.05,0,0,0.05,57.85,0)" xlink:href="#N"/><use transform="matrix(0.05,0,0,0.05,67.85,0)" xlink:href="#Q"/></g><g id="t"><use transform="matrix(0.05,0,0,0.05,0,0)" xlink:href="#Y"/><use transform="matrix(0.05,0,0,0.05,14.950000000000001,0)" xlink:href="#ad"/><use transform="matrix(0.05,0,0,0.05,24.950000000000003,0)" xlink:href="#Z"/><use transform="matrix(0.05,0,0,0.05,28.900000000000002,0)" xlink:href="#V"/><use transform="matrix(0.05,0,0,0.05,33.900000000000006,0)" xlink:href="#P"/><use transform="matrix(0.05,0,0,0.05,37.85000000000001,0)" xlink:href="#F"/><use transform="matrix(0.05,0,0,0.05,50.80000000000001,0)" xlink:href="#G"/><use transform="matrix(0.05,0,0,0.05,60.80000000000001,0)" xlink:href="#H"/><use transform="matrix(0.05,0,0,0.05,75.75000000000001,0)" xlink:href="#I"/><use transform="matrix(0.05,0,0,0.05,85.75000000000001,0)" xlink:href="#J"/><use transform="matrix(0.05,0,0,0.05,91.70000000000002,0)" xlink:href="#G"/></g><path d="M63-220v92h138v28H63V0H30v-248h175v28H63" id="ah"/><g id="u"><use transform="matrix(0.05,0,0,0.05,0,0)" xlink:href="#ah"/><use transform="matrix(0.05,0,0,0.05,10.950000000000001,0)" xlink:href="#ad"/><use transform="matrix(0.05,0,0,0.05,20.950000000000003,0)" xlink:href="#K"/><use transform="matrix(0.05,0,0,0.05,29.950000000000003,0)" xlink:href="#P"/><use transform="matrix(0.05,0,0,0.05,33.900000000000006,0)" xlink:href="#N"/><use transform="matrix(0.05,0,0,0.05,43.900000000000006,0)" xlink:href="#Q"/></g><g id="v"><use transform="matrix(0.05,0,0,0.05,0,0)" xlink:href="#S"/><use transform="matrix(0.05,0,0,0.05,12,0)" xlink:href="#I"/><use transform="matrix(0.05,0,0,0.05,22,0)" xlink:href="#H"/><use transform="matrix(0.05,0,0,0.05,36.95,0)" xlink:href="#G"/><use transform="matrix(0.05,0,0,0.05,46.95,0)" xlink:href="#Q"/><use transform="matrix(0.05,0,0,0.05,56.95,0)" xlink:href="#V"/><use transform="matrix(0.05,0,0,0.05,61.95,0)" xlink:href="#P"/><use transform="matrix(0.05,0,0,0.05,65.9,0)" xlink:href="#M"/></g><g id="w"><use transform="matrix(0.05,0,0,0.05,0,0)" xlink:href="#F"/><use transform="matrix(0.05,0,0,0.05,12.950000000000001,0)" xlink:href="#N"/><use transform="matrix(0.05,0,0,0.05,22.950000000000003,0)" xlink:href="#Q"/><use transform="matrix(0.05,0,0,0.05,32.95,0)" xlink:href="#K"/><use transform="matrix(0.05,0,0,0.05,41.95,0)" xlink:href="#V"/><use transform="matrix(0.05,0,0,0.05,46.95,0)" xlink:href="#J"/><use transform="matrix(0.05,0,0,0.05,52.900000000000006,0)" xlink:href="#G"/><use transform="matrix(0.05,0,0,0.05,62.900000000000006,0)" xlink:href="#P"/><use transform="matrix(0.05,0,0,0.05,66.85000000000001,0)" xlink:href="#Q"/><use transform="matrix(0.05,0,0,0.05,76.85000000000001,0)" xlink:href="#P"/><use transform="matrix(0.05,0,0,0.05,80.80000000000001,0)" xlink:href="#Q"/><use transform="matrix(0.05,0,0,0.05,90.80000000000001,0)" xlink:href="#R"/></g><g id="x"><use transform="matrix(0.05,0,0,0.05,0,0)" xlink:href="#S"/><use transform="matrix(0.05,0,0,0.05,12,0)" xlink:href="#V"/><use transform="matrix(0.05,0,0,0.05,17,0)" xlink:href="#G"/><use transform="matrix(0.05,0,0,0.05,27,0)" xlink:href="#V"/><use transform="matrix(0.05,0,0,0.05,32,0)" xlink:href="#P"/><use transform="matrix(0.05,0,0,0.05,35.95,0)" xlink:href="#K"/><use transform="matrix(0.05,0,0,0.05,44.95,0)" xlink:href="#V"/><use transform="matrix(0.05,0,0,0.05,49.95,0)" xlink:href="#P"/><use transform="matrix(0.05,0,0,0.05,53.900000000000006,0)" xlink:href="#M"/><use transform="matrix(0.05,0,0,0.05,62.900000000000006,0)" xlink:href="#K"/></g><g id="y"><use transform="matrix(0.05,0,0,0.05,0,0)" xlink:href="#af"/><use transform="matrix(0.05,0,0,0.05,14,0)" xlink:href="#I"/><use transform="matrix(0.05,0,0,0.05,24,0)" xlink:href="#Q"/><use transform="matrix(0.05,0,0,0.05,34,0)" xlink:href="#I"/><use transform="matrix(0.05,0,0,0.05,44,0)" xlink:href="#J"/><use transform="matrix(0.05,0,0,0.05,49.95,0)" xlink:href="#G"/><use transform="matrix(0.05,0,0,0.05,59.95,0)" xlink:href="#V"/><use transform="matrix(0.05,0,0,0.05,64.95,0)" xlink:href="#P"/><use transform="matrix(0.05,0,0,0.05,68.9,0)" xlink:href="#N"/><use transform="matrix(0.05,0,0,0.05,78.9,0)" xlink:href="#Q"/></g><g id="z"><use transform="matrix(0.05,0,0,0.05,0,0)" xlink:href="#S"/><use transform="matrix(0.05,0,0,0.05,12,0)" xlink:href="#P"/><use transform="matrix(0.05,0,0,0.05,15.949999999999998,0)" xlink:href="#H"/><use transform="matrix(0.05,0,0,0.05,30.899999999999995,0)" xlink:href="#ab"/><use transform="matrix(0.05,0,0,0.05,40.9,0)" xlink:href="#Z"/><use transform="matrix(0.05,0,0,0.05,44.85,0)" xlink:href="#I"/></g><g id="A"><use transform="matrix(0.05,0,0,0.05,0,0)" xlink:href="#W"/><use transform="matrix(0.05,0,0,0.05,12,0)" xlink:href="#X"/></g><path fill="#fff" d="M190 0L58-211 59 0H30v-248h39L202-35l-2-213h31V0h-41" id="ai"/><path fill="#fff" d="M100-194c62-1 85 37 85 99 1 63-27 99-86 99S16-35 15-95c0-66 28-99 85-99zM99-20c44 1 53-31 53-75 0-43-8-75-51-75s-53 32-53 75 10 74 51 75" id="aj"/><g id="B"><use transform="matrix(0.05,0,0,0.05,0,0)" xlink:href="#ai"/><use transform="matrix(0.05,0,0,0.05,12.950000000000001,0)" xlink:href="#aj"/></g><g id="C"><use transform="matrix(0.05,0,0,0.05,0,0)" xlink:href="#ah"/><use transform="matrix(0.05,0,0,0.05,10.950000000000001,0)" xlink:href="#ad"/><use transform="matrix(0.05,0,0,0.05,20.950000000000003,0)" xlink:href="#K"/><use transform="matrix(0.05,0,0,0.05,29.950000000000003,0)" xlink:href="#P"/><use transform="matrix(0.05,0,0,0.05,33.900000000000006,0)" xlink:href="#N"/><use transform="matrix(0.05,0,0,0.05,43.900000000000006,0)" xlink:href="#Q"/></g><g id="D"><use transform="matrix(0.05,0,0,0.05,0,0)" xlink:href="#G"/><use transform="matrix(0.05,0,0,0.05,10,0)" xlink:href="#Q"/><use transform="matrix(0.05,0,0,0.05,20,0)" xlink:href="#O"/></g><g id="E"><use transform="matrix(0.05,0,0,0.05,0,0)" xlink:href="#ah"/><use transform="matrix(0.05,0,0,0.05,10.950000000000001,0)" xlink:href="#P"/><use transform="matrix(0.05,0,0,0.05,14.9,0)" xlink:href="#Z"/><use transform="matrix(0.05,0,0,0.05,18.85,0)" xlink:href="#V"/><use transform="matrix(0.05,0,0,0.05,23.85,0)" xlink:href="#I"/><use transform="matrix(0.05,0,0,0.05,33.85,0)" xlink:href="#J"/><use transform="matrix(0.05,0,0,0.05,39.800000000000004,0)" xlink:href="#P"/><use transform="matrix(0.05,0,0,0.05,43.75000000000001,0)" xlink:href="#Q"/><use transform="matrix(0.05,0,0,0.05,53.75,0)" xlink:href="#R"/></g></defs></g></svg>